<svg width="240" height="240" viewBox="0 0 240 240" fill="none" xmlns="http://www.w3.org/2000/svg">
<path d="M13.9694 231.13C18.2256 235.743 35.7569 227.699 49.5944 221.249C59.9631 216.43 101.457 199.405 122.082 190.574C127.651 188.193 135.751 185.08 141.582 177.412C146.757 170.587 160.482 141.599 132.844 112.237C104.794 82.424 75.9006 90.6553 65.1006 98.3053C58.7444 102.805 53.5694 112.949 51.2444 118.105C41.4194 139.893 27.4131 179.812 21.7131 195.505C17.5319 207.074 9.75063 226.555 13.9694 231.13Z" fill="#FFC107"/>
<path d="M48.4695 124.669C48.732 127.931 49.3882 133.237 51.6382 143.456C53.1757 150.469 55.6882 157.819 57.732 162.675C63.8632 177.281 72.4695 183.169 81.1882 187.894C96.0007 195.919 106.069 197.419 106.069 197.419L93.9945 202.35C93.9945 202.35 86.682 200.831 76.707 195.919C67.2007 191.231 57.3007 183.3 50.0632 167.775C46.932 161.044 45.1132 154.519 44.0632 149.344C42.7695 142.931 42.5632 139.294 42.5632 139.294L48.4695 124.669Z" fill="#FF8F00"/>
<path d="M33.6386 162.693C33.6386 162.693 35.1386 174.862 45.1886 190.218C56.9636 208.18 73.4074 211.124 73.4074 211.124L62.4761 215.624C62.4761 215.624 50.2699 211.893 38.6636 196.049C31.4261 186.168 29.4011 174.355 29.4011 174.355L33.6386 162.693Z" fill="#FF8F00"/>
<path d="M23.2321 191.532C23.2321 191.532 25.9696 202.032 31.9696 209.869C39.1133 219.226 48.2071 221.944 48.2071 221.944L39.8258 225.657C39.8258 225.657 33.4696 224.326 26.5133 215.513C21.2258 208.819 19.7258 201.132 19.7258 201.132L23.2321 191.532Z" fill="#FF8F00"/>
<g opacity="0.44">
<path d="M18.6754 218.194C18.3004 217.351 18.3004 216.394 18.6942 215.569L66.4504 116.532L74.3067 146.063L24.0567 218.644C22.7067 220.669 19.6692 220.407 18.6754 218.194Z" fill="#FFFDE7"/>
</g>
<path d="M78.0946 155.98C100.407 182.08 125.813 178.817 134.27 172.217C142.745 165.598 149.438 142.855 127.22 117.186C103.932 90.2984 77.5696 97.9671 71.4759 103.78C65.3821 109.592 57.6196 132.036 78.0946 155.98Z" fill="url(#paint0_linear_203_2857)"/>
<path d="M154.726 166.725C146.588 159.9 142.257 161.119 136.444 163.538C128.944 166.65 117.151 168.956 101.138 163.538L105.957 151.931C115.463 155.138 122.344 153.581 128.288 150.075C135.938 145.575 146.401 139.406 162.676 153.075C169.463 158.775 176.419 162.563 181.519 160.838C185.232 159.6 187.201 154.069 188.194 149.663C188.288 149.269 188.438 148.144 188.551 147.15C189.451 140.269 190.951 125.419 202.013 117.825C213.844 109.706 226.276 109.706 226.276 109.706L228.526 132.056C222.807 131.213 218.832 132.375 215.476 134.231C202.838 141.263 213.844 168.263 194.176 177.338C175.257 186.131 159.788 170.963 154.726 166.725Z" fill="#03A9F4"/>
<path d="M85.1256 138.225L76.9881 130.931C91.9319 114.244 87.9944 101.981 85.1256 93.0563C84.5444 91.2562 84.0006 89.55 83.6444 87.9187C82.3694 82.1437 82.1069 77.1188 82.5006 72.7313C76.7631 65.5875 74.2319 58.1062 74.0631 57.6C70.5756 47.0437 73.2006 36.75 79.2194 27.0938C91.3881 7.5 113.419 7.5 113.419 7.5L120.769 27.1687C115.182 26.9438 96.8631 27.225 91.2381 36.0938C84.1319 47.2687 88.8006 54.1688 89.1381 54.9562C90.5069 53.175 91.8944 51.75 93.1319 50.6437C102.113 42.675 109.913 41.5312 114.882 41.9812C120.469 42.4875 125.532 45.3 129.151 49.9125C133.107 54.975 134.738 61.5563 133.482 67.5375C132.263 73.3688 128.382 78.3 122.551 81.4313C112.369 86.9062 103.894 86.1562 98.2131 84.2625C98.2506 84.3937 98.2694 84.5437 98.3069 84.675C98.5131 85.6125 98.9256 86.925 99.4131 88.4437C102.732 98.7188 108.901 115.031 85.1256 138.225ZM98.9069 67.8562C99.9944 68.6437 101.138 69.3 102.319 69.7687C106.257 71.3438 110.551 70.8187 115.426 68.1937C118.294 66.6562 118.632 65.0063 118.744 64.4625C119.082 62.8313 118.519 60.75 117.301 59.1937C116.232 57.825 114.994 57.1125 113.513 56.9625C110.701 56.7188 106.894 58.5 103.088 61.8937C101.269 63.525 99.8819 65.5312 98.9069 67.8562Z" fill="#F44336"/>
<path d="M117.695 141.28L106.051 140.961C106.051 140.961 111.582 109.724 129.488 104.474C132.845 103.499 136.52 102.505 140.213 101.961C142.407 101.624 145.876 101.118 147.582 100.48C147.976 97.5363 146.738 93.7863 145.351 89.5301C144.263 86.2301 143.138 82.8363 142.538 79.1238C141.376 71.8863 143.307 65.4926 147.976 61.0863C153.676 55.7426 162.882 54.0363 173.27 56.3988C179.195 57.7488 183.563 60.6551 187.407 63.2051C192.901 66.8613 196.107 68.7176 202.82 64.1988C210.938 58.7238 200.326 37.2926 194.682 24.9176L215.738 16.1426C218.57 22.3301 232.238 54.1676 223.22 72.3363C220.182 78.4488 214.951 82.4988 208.088 84.0176C193.163 87.3551 184.426 81.5426 178.051 77.3051C175.032 75.2988 172.388 73.7238 169.52 72.8988C149.588 67.2176 177.413 96.5426 164.382 109.724C156.563 117.618 137.457 119.699 136.22 119.999C123.92 122.961 117.695 141.28 117.695 141.28Z" fill="#F48FB1"/>
<path d="M82.4825 72.7295C82.1263 76.8545 81.9575 79.3107 83.0263 84.6732C88.1825 88.4607 99.4138 88.4607 99.4138 88.4607C98.9263 86.942 98.495 85.6295 98.3075 84.692C98.27 84.5607 98.2513 84.4107 98.2138 84.2795C86.795 78.5795 82.4825 72.7295 82.4825 72.7295Z" fill="#C92B27"/>
<path d="M59.1194 91.2016L39.7319 81.6954L49.3882 67.7454L64.5944 77.8141L59.1194 91.2016Z" fill="#FFC107"/>
<path d="M30.5437 64.876C20.6437 63.5448 10.5562 55.1448 9.44995 54.1885L19.1812 42.7698C22.1249 45.2635 28.3687 49.4448 32.55 50.0073L30.5437 64.876Z" fill="#FB8C00"/>
<path d="M48.0181 39.883L33.7681 35.2143C35.3993 30.2268 35.8306 24.8455 34.9868 19.6518L49.7993 17.2705C51.0181 24.808 50.3993 32.6268 48.0181 39.883Z" fill="#03A9F4"/>
<path d="M151.666 25.5274L137.012 28.7329L141.243 48.0755L155.897 44.87L151.666 25.5274Z" fill="#FB8C00"/>
<path d="M173.362 33.3171L163.05 22.4234C168.45 17.3046 169.687 10.6109 169.687 10.5359L184.5 12.9546C184.312 14.1359 182.419 24.7484 173.362 33.3171Z" fill="#FFC107"/>
<path d="M192.194 86.9971L179.094 91.0913L183.568 105.409L196.669 101.315L192.194 86.9971Z" fill="#FB8C00"/>
<path d="M182.906 211.933L168 210.17C168.637 204.864 164.681 198.358 163.594 196.914L175.594 187.914C176.494 189.095 184.313 199.914 182.906 211.933Z" fill="#F44336"/>
<path d="M225.694 192.918C220.088 192.074 214.35 191.737 208.688 191.943L208.182 176.943C214.763 176.718 221.419 177.093 227.925 178.087L225.694 192.918Z" fill="#FB8C00"/>
<path d="M216.066 202.893L205.527 213.567L220.03 227.887L230.569 217.213L216.066 202.893Z" fill="#F48FB1"/>
<path d="M185.397 131.139L174.56 118.748L162.168 129.585L173.006 141.976L185.397 131.139Z" fill="#F44336"/>
<defs>
<linearGradient id="paint0_linear_203_2857" x1="139.471" y1="115.946" x2="83.6577" y2="149.434" gradientUnits="userSpaceOnUse">
<stop offset="0.0235" stop-color="#8F4700"/>
<stop offset="1" stop-color="#703E2D"/>
</linearGradient>
</defs>
</svg>
