<svg width="28" height="28" viewBox="0 0 28 28" fill="currentColor" xmlns="http://www.w3.org/2000/svg">
<path d="M24.5 18.5V24.5H3.5V18.5H24.5ZM26 15.5H2C1.175 15.5 0.5 16.175 0.5 17V26C0.5 26.825 1.175 27.5 2 27.5H26C26.825 27.5 27.5 26.825 27.5 26V17C27.5 16.175 26.825 15.5 26 15.5ZM6.5 23.75C5.27 23.75 4.25 22.745 4.25 21.5C4.25 20.255 5.27 19.25 6.5 19.25C7.73 19.25 8.75 20.255 8.75 21.5C8.75 22.745 7.745 23.75 6.5 23.75ZM24.5 3.5V9.5H3.5V3.5H24.5ZM26 0.5H2C1.175 0.5 0.5 1.175 0.5 2V11C0.5 11.825 1.175 12.5 2 12.5H26C26.825 12.5 27.5 11.825 27.5 11V2C27.5 1.175 26.825 0.5 26 0.5ZM6.5 8.75C5.27 8.75 4.25 7.745 4.25 6.5C4.25 5.255 5.27 4.25 6.5 4.25C7.73 4.25 8.75 5.27 8.75 6.5C8.75 7.73 7.745 8.75 6.5 8.75Z" fill="current"/>
</svg>
