<svg width="36" height="36" viewBox="0 0 36 36" fill="none" xmlns="http://www.w3.org/2000/svg">
<path d="M28.5 22.5V28.5H7.5V22.5H28.5ZM30 19.5H6C5.175 19.5 4.5 20.175 4.5 21V30C4.5 30.825 5.175 31.5 6 31.5H30C30.825 31.5 31.5 30.825 31.5 30V21C31.5 20.175 30.825 19.5 30 19.5ZM10.5 27.75C9.27 27.75 8.25 26.745 8.25 25.5C8.25 24.255 9.27 23.25 10.5 23.25C11.73 23.25 12.75 24.255 12.75 25.5C12.75 26.745 11.745 27.75 10.5 27.75ZM28.5 7.5V13.5H7.5V7.5H28.5ZM30 4.5H6C5.175 4.5 4.5 5.175 4.5 6V15C4.5 15.825 5.175 16.5 6 16.5H30C30.825 16.5 31.5 15.825 31.5 15V6C31.5 5.175 30.825 4.5 30 4.5ZM10.5 12.75C9.27 12.75 8.25 11.745 8.25 10.5C8.25 9.255 9.27 8.25 10.5 8.25C11.73 8.25 12.75 9.27 12.75 10.5C12.75 11.73 11.745 12.75 10.5 12.75Z" fill="#2354D4"/>
</svg>
