<svg width="30" height="30" viewBox="0 0 30 30" fill="none" xmlns="http://www.w3.org/2000/svg">
<g id="Copy">
<path id="Vector" d="M11.25 11.5V8.00024C11.25 6.60011 11.25 5.89953 11.5225 5.36475C11.7622 4.89434 12.1443 4.51217 12.6147 4.27248C13.1495 4 13.8501 4 15.2502 4H22.2502C23.6504 4 24.3501 4 24.8849 4.27248C25.3553 4.51217 25.7381 4.89434 25.9778 5.36475C26.2503 5.89953 26.2503 6.59959 26.2503 7.99972V14.9998C26.2503 16.3999 26.2503 17.1 25.9778 17.6347C25.7381 18.1051 25.3549 18.4881 24.8845 18.7278C24.3502 19 23.6513 19 22.2539 19H18.75M11.25 11.5H7.75024C6.35011 11.5 5.64953 11.5 5.11475 11.7725C4.64434 12.0122 4.26217 12.3943 4.02248 12.8647C3.75 13.3995 3.75 14.1001 3.75 15.5002V22.5002C3.75 23.9004 3.75 24.6001 4.02248 25.1349C4.26217 25.6053 4.64434 25.9881 5.11475 26.2278C5.649 26.5 6.34874 26.5 7.74613 26.5H14.7544C16.1518 26.5 16.8506 26.5 17.3849 26.2278C17.8553 25.9881 18.2381 25.6049 18.4778 25.1345C18.75 24.6002 18.75 23.9013 18.75 22.5039V19M11.25 11.5H14.7502C16.1504 11.5 16.8501 11.5 17.3849 11.7725C17.8553 12.0122 18.2381 12.3943 18.4778 12.8647C18.75 13.399 18.75 14.0988 18.75 15.4962L18.75 19" stroke="#D9D9D9" stroke-width="2.5" stroke-linecap="round" stroke-linejoin="round"/>
</g>
</svg>
