<svg width="28" height="26" viewBox="0 0 28 26" fill="none" xmlns="http://www.w3.org/2000/svg">
<path d="M13.9947 0C6.26662 0 0 4.97177 0 11.1072C0 15.074 2.6181 18.5489 6.56102 20.5218L5.14157 25.6258C5.14157 25.6258 5.11528 25.8638 5.26774 25.9537C5.4202 26.0436 5.60421 25.9749 5.60421 25.9749C6.04581 25.9114 10.7037 22.6163 11.5186 22.045C12.3229 22.1614 13.1588 22.2196 14.0053 22.2196C21.7334 22.2196 28 17.2478 28 11.1124C28 4.97706 21.7229 0 13.9947 0Z" fill="black"/>
<path d="M6.25593 14.9786C5.80906 14.9786 5.44632 14.6296 5.44632 14.2011V9.37218H4.18458C3.74823 9.37218 3.396 9.01781 3.396 8.57881C3.396 8.13981 3.75349 7.78544 4.18458 7.78544H8.32202C8.75837 7.78544 9.1106 8.13981 9.1106 8.57881C9.1106 9.01781 8.75311 9.37218 8.32202 9.37218H7.06028V14.2011C7.06028 14.6243 6.69228 14.9786 6.25067 14.9786H6.25593ZM13.3374 14.9681C13.001 14.9681 12.7433 14.8305 12.6645 14.6084L12.2649 13.5506H9.80456L9.40501 14.6084C9.32615 14.8305 9.06855 14.9681 8.73208 14.9681C8.55334 14.9681 8.37985 14.931 8.21687 14.8623C7.99607 14.7565 7.78052 14.4762 8.02761 13.7093L9.95702 8.59468C10.0937 8.20328 10.509 7.80131 11.0347 7.79073C11.5605 7.78015 11.981 8.20328 12.1125 8.59468L14.0419 13.7093C14.289 14.4762 14.0734 14.7671 13.8526 14.8623C13.6949 14.9363 13.5162 14.9681 13.3374 14.9681ZM11.8391 12.1119L11.0347 9.80588L10.2304 12.1119H11.8391ZM15.3404 14.8623C14.9198 14.8623 14.5676 14.5291 14.5676 14.1218V8.59468C14.5676 8.1451 14.9356 7.78015 15.393 7.78015C15.8504 7.78015 16.2184 8.15039 16.2184 8.59468V13.3655H17.9322C18.3528 13.3655 18.705 13.6987 18.705 14.1059C18.705 14.5132 18.3581 14.8464 17.9322 14.8464L15.3404 14.8623ZM19.0152 14.1535V8.59997C19.0152 8.15039 19.3832 7.78544 19.8248 7.78544C20.2664 7.78544 20.6344 8.15568 20.6344 8.59997V10.3454L22.8951 8.07105C23.1439 7.8207 23.6143 7.84265 23.8992 8.12923C24.1668 8.39844 24.2363 8.85348 23.957 9.13946L22.1065 10.9906L24.0937 13.6352C24.3607 13.9791 24.2959 14.5147 23.936 14.7671C23.5811 15.0315 23.0598 14.9434 22.8057 14.6084L20.9131 12.0855L20.6344 12.3658V14.1377C20.6344 15.1931 19.0152 15.2337 19.0152 14.1535Z" fill="#FFE812"/>
</svg>
