<svg width="34" height="24" viewBox="0 0 34 24" fill="none" xmlns="http://www.w3.org/2000/svg">
<path d="M20 7.5H16.25C15.0074 7.5 14 8.50736 14 9.75C14 10.9926 15.0074 12 16.25 12H17.75C18.9926 12 20 13.0074 20 14.25C20 15.4926 18.9926 16.5 17.75 16.5H14M17 6V7.5M17 16.5V18M26 12H26.015M8 12H8.015M2 6.3L2 17.7C2 19.3802 2 20.2202 2.32698 20.862C2.6146 21.4265 3.07354 21.8854 3.63803 22.173C4.27976 22.5 5.11984 22.5 6.8 22.5L27.2 22.5C28.8802 22.5 29.7202 22.5 30.362 22.173C30.9265 21.8854 31.3854 21.4265 31.673 20.862C32 20.2202 32 19.3802 32 17.7V6.3C32 4.61984 32 3.77977 31.673 3.13803C31.3854 2.57354 30.9265 2.1146 30.362 1.82698C29.7202 1.5 28.8802 1.5 27.2 1.5L6.8 1.5C5.11984 1.5 4.27976 1.5 3.63803 1.82698C3.07354 2.1146 2.6146 2.57354 2.32698 3.13803C2 3.77976 2 4.61984 2 6.3ZM26.75 12C26.75 12.4142 26.4142 12.75 26 12.75C25.5858 12.75 25.25 12.4142 25.25 12C25.25 11.5858 25.5858 11.25 26 11.25C26.4142 11.25 26.75 11.5858 26.75 12ZM8.75 12C8.75 12.4142 8.41421 12.75 8 12.75C7.58579 12.75 7.25 12.4142 7.25 12C7.25 11.5858 7.58579 11.25 8 11.25C8.41421 11.25 8.75 11.5858 8.75 12Z" stroke="#D9D9D9" stroke-width="3" stroke-linecap="round" stroke-linejoin="round"/>
</svg>
