<svg width="120" height="165" viewBox="0 0 120 165" fill="none" xmlns="http://www.w3.org/2000/svg">
<path d="M9.44931 164.379C8.9512 164.379 8.5996 164.283 8.3945 164.09C8.1894 163.897 8.08685 163.552 8.08685 163.055V139.841H1.40641C0.879005 139.841 0.512753 139.745 0.307652 139.552C0.102551 139.331 0 138.959 0 138.434V136.407C0 135.883 0.102551 135.524 0.307652 135.331C0.512753 135.11 0.879005 135 1.40641 135H20.2611C20.7885 135 21.1547 135.11 21.3598 135.331C21.5649 135.524 21.6675 135.883 21.6675 136.407V138.434C21.6675 138.959 21.5649 139.331 21.3598 139.552C21.1547 139.745 20.7885 139.841 20.2611 139.841H13.5806V163.055C13.5806 163.552 13.4781 163.897 13.273 164.09C13.0972 164.283 12.7456 164.379 12.2182 164.379H9.44931Z" fill="#040916"/>
<path d="M36.5735 165C32.8817 165 30.0542 164.048 28.0911 162.145C26.1573 160.214 25.1904 157.593 25.1904 154.283V136.324C25.1904 135.8 25.2783 135.455 25.4541 135.29C25.6592 135.097 26.0254 135 26.5528 135H29.2777C29.8051 135 30.1714 135.097 30.3765 135.29C30.5816 135.455 30.6841 135.8 30.6841 136.324V154.324C30.6841 156.2 31.1676 157.648 32.1345 158.669C33.1307 159.662 34.6104 160.159 36.5735 160.159C38.5659 160.159 40.0456 159.662 41.0125 158.669C41.9794 157.648 42.4628 156.2 42.4628 154.324V136.324C42.4628 135.8 42.5654 135.455 42.7705 135.29C42.9756 135.097 43.3418 135 43.8692 135H46.5941C47.1215 135 47.4878 135.097 47.6929 135.29C47.898 135.455 48.0005 135.8 48.0005 136.324V154.283C48.0005 157.593 47.019 160.214 45.0559 162.145C43.0928 164.048 40.2653 165 36.5735 165Z" fill="#040916"/>
<path d="M61.9898 160.945C60.9057 160.945 60.1586 160.752 59.7484 160.366C59.3382 159.979 59.1331 159.276 59.1331 158.255V157.883C59.1331 156.89 59.3382 156.2 59.7484 155.814C60.1586 155.428 60.9057 155.234 61.9898 155.234H62.2975C63.3816 155.234 64.1141 155.428 64.495 155.814C64.9052 156.2 65.1103 156.89 65.1103 157.883V158.255C65.1103 159.276 64.9052 159.979 64.495 160.366C64.1141 160.752 63.3816 160.945 62.2975 160.945H61.9898ZM59.1331 142.738C59.1331 141.717 59.3382 141.028 59.7484 140.669C60.1586 140.283 60.9057 140.09 61.9898 140.09H62.2975C63.3816 140.09 64.1141 140.283 64.495 140.669C64.9052 141.028 65.1103 141.717 65.1103 142.738V143.11C65.1103 144.131 64.9052 144.834 64.495 145.221C64.1141 145.579 63.3816 145.759 62.2975 145.759H61.9898C60.9057 145.759 60.1586 145.579 59.7484 145.221C59.3382 144.834 59.1331 144.131 59.1331 143.11V142.738Z" fill="#2354D4"/>
<path d="M77.3717 164.379C76.8443 164.379 76.478 164.283 76.2729 164.09C76.0971 163.869 76.0092 163.497 76.0092 162.972V136.407C76.0092 135.883 76.0971 135.524 76.2729 135.331C76.478 135.11 76.8443 135 77.3717 135H88.0077C90.967 135 93.3256 135.855 95.0836 137.566C96.871 139.276 97.7646 141.621 97.7646 144.6C97.7646 147.579 96.8856 149.924 95.1276 151.634C93.3989 153.317 91.0402 154.159 88.0516 154.159H81.503V162.972C81.503 163.497 81.4005 163.869 81.1954 164.09C80.9903 164.283 80.6386 164.379 80.1405 164.379H77.3717ZM87.7879 149.317C89.165 149.317 90.2491 148.903 91.0402 148.076C91.8313 147.248 92.2269 146.09 92.2269 144.6C92.2269 143.11 91.8313 141.952 91.0402 141.124C90.2491 140.269 89.165 139.841 87.7879 139.841H81.503V149.317H87.7879Z" fill="#040916"/>
<path d="M103.475 164.379C102.977 164.379 102.625 164.283 102.42 164.09C102.244 163.869 102.156 163.497 102.156 162.972V136.407C102.156 135.883 102.244 135.524 102.42 135.331C102.625 135.11 102.977 135 103.475 135H106.288C106.786 135 107.137 135.11 107.342 135.331C107.547 135.524 107.65 135.883 107.65 136.407V159.538H118.638C119.136 159.538 119.487 159.648 119.692 159.869C119.897 160.062 120 160.421 120 160.945V162.972C120 163.497 119.897 163.869 119.692 164.09C119.487 164.283 119.136 164.379 118.638 164.379H103.475Z" fill="#040916"/>
<path d="M61.3088 119.376C60.7237 119.784 60.0411 120.001 59.3437 120L59.3426 119.996C58.658 119.99 57.9884 119.781 57.4075 119.391L4.0853 82.5169C1.54497 80.7632 0.0125885 77.7348 0.0219512 74.4866V63.4696C-0.00901222 62.3202 0.415249 61.2107 1.18899 60.4177C2.40116 59.2411 4.19475 59.0824 5.56915 60.0302L59.8946 97.3305C59.929 97.3563 59.9747 97.3563 60.0092 97.3305L113.271 60.8955C114.578 60.002 115.368 58.4484 115.362 56.7813V46.3984C115.364 46.3779 115.36 46.3574 115.35 46.3396C115.32 46.2866 115.255 46.2694 115.205 46.3009L61.2158 82.8837C60.0314 83.6775 58.5307 83.6775 57.3463 82.8837L1.69061 45.0629C0.637872 44.3442 0 43.0957 0 41.754C0 40.4122 0.637872 39.1637 1.69061 38.445L56.8747 0.611251C58.0107 -0.167207 59.4539 -0.204744 60.6236 0.513738L60.6836 0.552485L117.766 40.5909L118.8 41.3523L118.98 41.5086C119.636 42.2375 120.002 43.2135 120 44.2286V56.7877C120.001 60.1705 118.383 63.3155 115.719 65.1106L61.9089 101.956C60.7187 102.769 59.1989 102.769 58.0087 101.956L4.75913 65.456C4.74377 65.4487 4.72731 65.4443 4.71052 65.4431C4.65132 65.4418 4.60126 65.4901 4.59592 65.5536V74.5299C4.59273 76.0726 5.32273 77.51 6.53099 78.34L59.2543 114.801C59.2888 114.827 59.3345 114.827 59.3689 114.801L115.001 76.238C115.016 76.2235 115.034 76.2144 115.053 76.2106L116.174 75.4367C117.279 74.6733 118.794 74.9504 119.557 76.0556C120.321 77.1608 120.044 78.6757 118.938 79.4391L116.503 81.1213L61.3088 119.376Z" fill="#2354D4"/>
<path d="M56.7188 81.5625H61.648V116.25H56.7188V81.5625Z" fill="#2354D4"/>
</svg>
